<svg width="420" height="230" viewBox="0 0 420 230" fill="none" xmlns="http://www.w3.org/2000/svg">
<g clip-path="url(#clip0)">
<path d="M244.611 3.27297e-05C239.409 64.76 202.111 95.371 186.709 105.355C201.417 100.742 215.41 97.0962 228.307 94.2155C231.417 93.5208 234.495 92.8628 237.538 92.2394C247.681 30.9192 292.757 7.62386 294.837 6.54877L294.839 6.54788C294.887 6.52312 294.911 6.51041 294.912 6.50957C289.566 54.0633 253.688 82.8831 241.371 91.4686C254.295 88.9185 266.544 86.993 277.86 85.5434C289.767 37.0479 336.662 16.9177 336.662 16.9177C326.809 62.3852 295.532 79.6819 282.909 84.9202C294.505 83.5432 305.025 82.6677 314.167 82.121C329.284 40.5721 367.945 32.1978 367.945 32.1978C353.119 67.0939 332.256 78.2202 321.232 81.7481C330.564 81.322 338.089 81.246 343.389 81.2815C373.08 62.3192 420 82.9404 420 82.9404C375.492 101.452 350.629 89.9733 343.016 85.1487C336.813 85.1104 327.612 85.2275 316.066 85.8774C329.385 87.8951 354.439 94.4943 376.521 116.077C376.558 116.087 327.298 118.457 307.419 86.4382C294.944 87.3526 280.334 88.8749 264.216 91.3692C280.351 92.1137 309.217 97.74 333.741 125.371C333.741 125.371 282.847 134.645 252.73 93.2723C245.088 94.6228 237.164 96.1924 229.018 98.0153C204.575 103.479 176.152 111.717 146.405 124.127C162.814 121.414 201.542 120.264 242.261 156.784C242.261 156.783 242.228 156.793 242.163 156.812C239.39 157.618 178.83 175.227 139.15 127.226C119.807 135.685 100.002 145.932 80.4496 158.344C97.7626 154.221 159.793 143.034 212.342 178.653C212.342 178.653 173.695 213.535 77.2496 160.397C64.3178 168.776 51.5142 178.115 39.0467 188.522C58.5962 184.06 109.675 181.184 210.996 226.472C210.996 226.472 210.968 226.477 210.914 226.486C207.51 227.051 99.7719 244.947 32.4017 194.2C22.4446 202.908 12.7305 212.325 3.36882 222.507C2.63787 223.275 1.40833 223.349 0.636526 222.621C0.0877318 222.114 -0.116937 221.378 0.0645001 220.704C0.145139 220.404 0.301016 220.125 0.522048 219.903C12.9665 206.372 26.0233 194.181 39.4418 183.198C13.4799 88.1946 54.4804 27.3355 54.4804 27.3355C80.9422 97.5993 49.7242 165.733 41.6683 181.389C52.6275 172.553 63.8175 164.514 75.1031 157.198C64.0063 97.6663 116.793 25.1736 116.793 25.1736C126.326 103.371 87.5056 146.078 77.5034 155.654C94.1919 145 111.068 135.914 127.696 128.168C124.256 48.4734 175.848 6.05783 175.848 6.05783C181.375 59.6374 144.614 110.493 131.994 126.192C148.443 118.735 164.611 112.575 180.072 107.488C180.338 50.5028 244.584 -0.0469537 244.611 3.27297e-05Z" fill="#D9E9E5"/>
<path d="M289.125 136.384C289.125 136.384 251.341 88.6434 188.745 108.781C188.745 108.781 188.746 108.783 188.749 108.788C188.754 108.795 188.764 108.81 188.777 108.832C189.867 110.563 218.185 155.544 289.125 136.384Z" fill="#D9E9E5"/>
</g>
<defs>
<clipPath id="clip0">
<rect width="420" height="230" fill="white"/>
</clipPath>
</defs>
</svg>
